<svg width="101" height="100" viewBox="0 0 101 100" fill="none" xmlns="http://www.w3.org/2000/svg">
<mask id="mask0_155_156" style="mask-type:luminance" maskUnits="userSpaceOnUse" x="0" y="0" width="101" height="100">
<path d="M0.5 0H100.5V100H0.5V0Z" fill="white"/>
</mask>
<g mask="url(#mask0_155_156)">
<path d="M100.451 50.0305C100.451 50.8483 100.431 51.6677 100.392 52.4854C100.351 53.3031 100.29 54.1192 100.21 54.9335C100.131 55.7478 100.031 56.5605 99.9102 57.3714C99.7899 58.1806 99.651 58.9865 99.49 59.7906C99.3307 60.5931 99.1527 61.3922 98.9528 62.1861C98.7545 62.9801 98.5359 63.769 98.2986 64.5528C98.0613 65.3366 97.8054 66.1136 97.5292 66.8838C97.2547 67.6557 96.9598 68.4192 96.6463 69.1758C96.3345 69.9325 96.0023 70.6806 95.6532 71.4203C95.3024 72.16 94.9363 72.8912 94.55 73.6139C94.1653 74.335 93.7619 75.0475 93.3416 75.7499C92.9197 76.4522 92.4824 77.1444 92.0283 77.8247C91.5741 78.505 91.103 79.1751 90.6166 79.8317C90.1285 80.4899 89.6252 81.1346 89.1066 81.7691C88.5881 82.4019 88.0542 83.0212 87.5051 83.6285C86.9561 84.2342 86.3917 84.828 85.8139 85.4065C85.236 85.985 84.6428 86.5499 84.0378 87.0996C83.4311 87.6493 82.8126 88.1837 82.1804 88.7028C81.5466 89.222 80.9027 89.7258 80.2451 90.2144C79.5893 90.7013 78.9199 91.173 78.2403 91.6276C77.5607 92.0823 76.8693 92.52 76.1677 92.9424C75.4661 93.3632 74.7543 93.767 74.0341 94.1521C73.3122 94.5389 72.5818 94.9053 71.8429 95.2565C71.104 95.606 70.3566 95.9385 69.6008 96.2507C68.845 96.5645 68.0824 96.8597 67.3113 97.1346C66.5419 97.4111 65.7657 97.6673 64.9828 97.9048C64.1998 98.1423 63.4118 98.3611 62.6187 98.5596C61.8256 98.7598 61.0274 98.938 60.2258 99.0974C59.4225 99.2586 58.6175 99.3977 57.8092 99.5182C56.9991 99.6386 56.1874 99.7387 55.3739 99.8185C54.5605 99.8982 53.7453 99.9593 52.9285 100C52.11 100.039 51.2931 100.059 50.4763 100.059C49.6577 100.059 48.8409 100.039 48.0241 100C47.2072 99.9593 46.3904 99.8982 45.5769 99.8185C44.7635 99.7387 43.9517 99.6386 43.1434 99.5182C42.3333 99.3977 41.5283 99.2586 40.7251 99.0974C39.9235 98.938 39.1253 98.7598 38.3322 98.5596C37.539 98.3611 36.751 98.1423 35.9681 97.9048C35.1851 97.6673 34.409 97.4111 33.6396 97.1346C32.8685 96.8597 32.1059 96.5645 31.3501 96.2507C30.5959 95.9385 29.8469 95.606 29.108 95.2565C28.3691 94.9053 27.6387 94.5389 26.9168 94.1521C26.1965 93.767 25.4847 93.3632 24.7831 92.9424C24.0815 92.52 23.3901 92.0823 22.7105 91.6276C22.031 91.173 21.3616 90.7013 20.7057 90.2144C20.0482 89.7258 19.4042 89.222 18.7721 88.7028C18.14 88.1837 17.5197 87.6493 16.9147 87.0996C16.308 86.5499 15.7166 85.985 15.137 85.4065C14.5591 84.828 13.9948 84.2342 13.4457 83.6285C12.8966 83.0212 12.3628 82.4019 11.8442 81.7691C11.3257 81.1346 10.8223 80.4899 10.3343 79.8317C9.84788 79.1751 9.37676 78.505 8.92259 77.8247C8.46841 77.1444 8.03118 76.4522 7.6109 75.7499C7.18892 75.0475 6.78728 74.335 6.40089 73.6139C6.0162 72.8912 5.64845 72.16 5.29765 71.4203C4.94855 70.6806 4.61639 69.9325 4.30457 69.1758C3.99105 68.4192 3.69618 67.6557 3.42164 66.8838C3.1454 66.1136 2.88951 65.3366 2.65225 64.5528C2.41499 63.769 2.19638 62.9801 1.9981 62.1861C1.79813 61.3922 1.62019 60.5931 1.46089 59.7906C1.29989 58.9865 1.16093 58.1806 1.0406 57.3714C0.920282 56.5605 0.820295 55.7478 0.740645 54.9335C0.660995 54.1192 0.599987 53.3031 0.561009 52.4854C0.520336 51.6677 0.5 50.8483 0.5 50.0305C0.5 49.2111 0.520336 48.3934 0.561009 47.5757C0.599987 46.7579 0.660995 45.9402 0.740645 45.1259C0.820295 44.3115 0.920282 43.4989 1.0406 42.6897C1.16093 41.8787 1.29989 41.0729 1.46089 40.2687C1.62019 39.4663 1.79813 38.6672 1.9981 37.8732C2.19638 37.0793 2.41499 36.2904 2.65225 35.5066C2.88951 34.7228 3.1454 33.9458 3.42164 33.1756C3.69618 32.4036 3.99105 31.6402 4.30457 30.8835C4.61639 30.1286 4.94855 29.3787 5.29765 28.639C5.64845 27.8994 6.0162 27.1682 6.40089 26.4454C6.78728 25.7244 7.18892 25.0119 7.6109 24.3095C8.03118 23.6072 8.46841 22.915 8.92259 22.2347C9.37676 21.5544 9.84788 20.8842 10.3343 20.2277C10.8223 19.5694 11.3257 18.9247 11.8442 18.2919C12.3628 17.6591 12.8966 17.0382 13.4457 16.4325C13.9948 15.8252 14.5591 15.2331 15.137 14.6529C15.7166 14.0744 16.308 13.5094 16.9147 12.9598C17.5197 12.4101 18.14 11.8757 18.7721 11.3565C19.4042 10.8374 20.0482 10.3335 20.7057 9.84494C21.3616 9.35803 22.031 8.8864 22.7105 8.43173C23.3901 7.97706 24.0815 7.53936 24.7831 7.11862C25.4847 6.69619 26.1965 6.29411 26.9168 5.9073C27.6387 5.52219 28.3691 5.15404 29.108 4.80286C29.8469 4.45338 30.5959 4.12086 31.3501 3.8087C32.1059 3.49484 32.8685 3.19965 33.6396 2.92481C34.409 2.64828 35.1851 2.3921 35.9681 2.15459C36.751 1.91707 37.539 1.69822 38.3322 1.49973C39.1253 1.29954 39.9235 1.1214 40.7251 0.96193C41.5283 0.80076 42.3333 0.661645 43.1434 0.541192C43.9517 0.420738 44.7635 0.320643 45.5769 0.240907C46.3904 0.16117 47.2072 0.100095 48.0241 0.0610749C48.8409 0.0203583 49.6577 0 50.4763 0C51.2931 0 52.11 0.0203583 52.9285 0.0610749C53.7453 0.100095 54.5605 0.16117 55.3739 0.240907C56.1874 0.320643 56.9991 0.420738 57.8092 0.541192C58.6175 0.661645 59.4225 0.80076 60.2258 0.96193C61.0274 1.1214 61.8256 1.29954 62.6187 1.49973C63.4118 1.69822 64.1998 1.91707 64.9828 2.15459C65.7657 2.3921 66.5419 2.64828 67.3113 2.92481C68.0824 3.19965 68.845 3.49484 69.6008 3.8087C70.3566 4.12086 71.104 4.45338 71.8429 4.80286C72.5818 5.15404 73.3122 5.52219 74.0341 5.9073C74.7543 6.29411 75.4661 6.69619 76.1677 7.11862C76.8693 7.53936 77.5607 7.97706 78.2403 8.43173C78.9199 8.8864 79.5893 9.35803 80.2451 9.84494C80.9027 10.3335 81.5466 10.8374 82.1804 11.3565C82.8126 11.8757 83.4311 12.4101 84.0378 12.9598C84.6428 13.5094 85.236 14.0744 85.8139 14.6529C86.3917 15.2331 86.9561 15.8252 87.5051 16.4325C88.0542 17.0382 88.5881 17.6591 89.1066 18.2919C89.6252 18.9247 90.1285 19.5694 90.6166 20.2277C91.103 20.8842 91.5741 21.5544 92.0283 22.2347C92.4824 22.915 92.9197 23.6072 93.3416 24.3095C93.7619 25.0119 94.1653 25.7244 94.55 26.4454C94.9363 27.1682 95.3024 27.8994 95.6532 28.639C96.0023 29.3787 96.3345 30.1286 96.6463 30.8835C96.9598 31.6402 97.2547 32.4036 97.5292 33.1756C97.8054 33.9458 98.0613 34.7228 98.2986 35.5066C98.5359 36.2904 98.7545 37.0793 98.9528 37.8732C99.1527 38.6672 99.3307 39.4663 99.49 40.2687C99.651 41.0729 99.7899 41.8787 99.9102 42.6897C100.031 43.4989 100.131 44.3115 100.21 45.1259C100.29 45.9402 100.351 46.7579 100.392 47.5757C100.431 48.3934 100.451 49.2111 100.451 50.0305Z" fill="#A270CB"/>
</g>
<mask id="mask1_155_156" style="mask-type:luminance" maskUnits="userSpaceOnUse" x="29" y="3" width="42" height="45">
<path d="M29.7837 3.87329H70.9984V47.3943H29.7837V3.87329Z" fill="white"/>
</mask>
<g mask="url(#mask1_155_156)">
<path d="M50.4753 47.2772C61.6636 47.2772 70.7657 35.3879 70.7657 24.1875C70.7657 12.987 61.6636 3.87329 50.4753 3.87329C39.2853 3.87329 30.1831 12.987 30.1831 24.1875C30.1848 35.3879 39.287 47.2772 50.4753 47.2772Z" fill="white"/>
</g>
<mask id="mask2_155_156" style="mask-type:luminance" maskUnits="userSpaceOnUse" x="12" y="47" width="77" height="41">
<path d="M12.4302 47.3943H88.5317V87.5867H12.4302V47.3943Z" fill="white"/>
</mask>
<g mask="url(#mask2_155_156)">
<path d="M65.7096 47.4857C61.7729 50.4886 56.8634 52.2733 51.5438 52.2733H49.4085C44.0872 52.2733 39.176 50.4869 35.2409 47.4857C22.3901 49.5657 12.5762 60.7169 12.5762 74.1687C12.5762 81.5587 29.5434 87.5509 50.4761 87.5509C71.4072 87.5509 88.3761 81.5587 88.3761 74.1687C88.3761 60.7169 78.5604 49.5657 65.7096 47.4857Z" fill="white"/>
</g>
</svg>
